<?xml version="1.0" encoding="UTF-8" standalone="no"?>
<!-- Created with Inkscape (http://www.inkscape.org/) -->

<svg
   xmlns:dc="http://purl.org/dc/elements/1.1/"
   xmlns:cc="http://creativecommons.org/ns#"
   xmlns:rdf="http://www.w3.org/1999/02/22-rdf-syntax-ns#"
   xmlns:svg="http://www.w3.org/2000/svg"
   xmlns="http://www.w3.org/2000/svg"
   xmlns:sodipodi="http://sodipodi.sourceforge.net/DTD/sodipodi-0.dtd"
   xmlns:inkscape="http://www.inkscape.org/namespaces/inkscape"
   width="400"
   height="280.00003"
   viewBox="0 0 105.83333 74.083347"
   version="1.1"
   id="svg8"
   inkscape:version="0.92.5 (2060ec1f9f, 2020-04-08)"
   sodipodi:docname="Contact Icons.svg">
  <defs
     id="defs2" />
  <sodipodi:namedview
     id="base"
     pagecolor="#efefef"
     bordercolor="#666666"
     borderopacity="1.0"
     inkscape:pageopacity="0"
     inkscape:pageshadow="2"
     inkscape:zoom="1"
     inkscape:cx="129.17741"
     inkscape:cy="144.75342"
     inkscape:document-units="px"
     inkscape:current-layer="layer1"
     showgrid="false"
     inkscape:snap-global="false"
     units="px"
     inkscape:snap-smooth-nodes="true"
     inkscape:window-width="1920"
     inkscape:window-height="1017"
     inkscape:window-x="1912"
     inkscape:window-y="-8"
     inkscape:window-maximized="1"
     borderlayer="true"
     inkscape:showpageshadow="false"
     fit-margin-top="25"
     fit-margin-left="25"
     fit-margin-right="25"
     fit-margin-bottom="25"
     showborder="true" />
  <metadata
     id="metadata5">
    <rdf:RDF>
      <cc:Work
         rdf:about="">
        <dc:format>image/svg+xml</dc:format>
        <dc:type
           rdf:resource="http://purl.org/dc/dcmitype/StillImage" />
        <dc:title></dc:title>
      </cc:Work>
    </rdf:RDF>
  </metadata>
  <g
     inkscape:label="Layer 1"
     inkscape:groupmode="layer"
     id="layer1"
     transform="translate(-205.06052,-79.328563)">
    <path
       style="color:#000000;font-style:normal;font-variant:normal;font-weight:normal;font-stretch:normal;font-size:medium;line-height:normal;font-family:Sans;-inkscape-font-specification:Sans;text-indent:0;text-align:start;text-decoration:none;text-decoration-line:none;letter-spacing:normal;word-spacing:normal;text-transform:none;writing-mode:lr-tb;direction:ltr;baseline-shift:baseline;text-anchor:start;display:inline;overflow:visible;visibility:visible;fill:#9b9b9b;fill-opacity:1;stroke:none;stroke-width:0.26458335;marker:none;enable-background:accumulate"
       d="m 211.6751,85.943147 v 0.13229 12.96459 0.13229 h 0.13229 12.96459 0.13229 v -0.13229 -12.96459 -0.13229 h -0.13229 -12.96459 z m 0.26458,0.26458 h 12.7 v 12.7 h -12.7 z"
       id="rect4742"
       inkscape:connector-curvature="0" />
    <path
       inkscape:connector-curvature="0"
       id="path4759"
       d="m 227.5501,85.943147 v 0.13229 12.96459 0.13229 h 0.13229 12.96459 0.13229 v -0.13229 -12.96459 -0.13229 h -0.13229 -12.96459 z m 0.26458,0.26458 h 12.7 v 12.7 h -12.7 z"
       style="color:#000000;font-style:normal;font-variant:normal;font-weight:normal;font-stretch:normal;font-size:medium;line-height:normal;font-family:Sans;-inkscape-font-specification:Sans;text-indent:0;text-align:start;text-decoration:none;text-decoration-line:none;letter-spacing:normal;word-spacing:normal;text-transform:none;writing-mode:lr-tb;direction:ltr;baseline-shift:baseline;text-anchor:start;display:inline;overflow:visible;visibility:visible;fill:#9b9b9b;fill-opacity:1;stroke:none;stroke-width:0.26458335;marker:none;enable-background:accumulate" />
    <path
       inkscape:connector-curvature="0"
       id="path4779"
       d="m 243.4251,85.943147 v 0.13229 12.96459 0.13229 h 0.13229 12.96459 0.13229 v -0.13229 -12.96459 -0.13229 h -0.13229 -12.96459 z m 0.26458,0.26458 h 12.7 v 12.7 h -12.7 z"
       style="color:#000000;font-style:normal;font-variant:normal;font-weight:normal;font-stretch:normal;font-size:medium;line-height:normal;font-family:Sans;-inkscape-font-specification:Sans;text-indent:0;text-align:start;text-decoration:none;text-decoration-line:none;letter-spacing:normal;word-spacing:normal;text-transform:none;writing-mode:lr-tb;direction:ltr;baseline-shift:baseline;text-anchor:start;display:inline;overflow:visible;visibility:visible;fill:#9b9b9b;fill-opacity:1;stroke:none;stroke-width:0.26458335;marker:none;enable-background:accumulate" />
    <path
       style="color:#000000;font-style:normal;font-variant:normal;font-weight:normal;font-stretch:normal;font-size:medium;line-height:normal;font-family:Sans;-inkscape-font-specification:Sans;text-indent:0;text-align:start;text-decoration:none;text-decoration-line:none;letter-spacing:normal;word-spacing:normal;text-transform:none;writing-mode:lr-tb;direction:ltr;baseline-shift:baseline;text-anchor:start;display:inline;overflow:visible;visibility:visible;fill:#9b9b9b;fill-opacity:1;stroke:none;stroke-width:0.26458335;marker:none;enable-background:accumulate"
       d="m 259.3001,85.943147 v 0.13229 12.96459 0.13229 h 0.13229 12.96459 0.13229 v -0.13229 -12.96459 -0.13229 h -0.13229 -12.96459 z m 0.26458,0.26458 h 12.7 v 12.7 h -12.7 z"
       id="path4787"
       inkscape:connector-curvature="0" />
    <path
       style="color:#000000;font-style:normal;font-variant:normal;font-weight:normal;font-stretch:normal;font-size:medium;line-height:normal;font-family:Sans;-inkscape-font-specification:Sans;text-indent:0;text-align:start;text-decoration:none;text-decoration-line:none;letter-spacing:normal;word-spacing:normal;text-transform:none;writing-mode:lr-tb;direction:ltr;baseline-shift:baseline;text-anchor:start;display:inline;overflow:visible;visibility:visible;fill:#9b9b9b;fill-opacity:1;stroke:none;stroke-width:0.26458335;marker:none;enable-background:accumulate"
       d="m 275.1751,85.943147 v 0.13229 12.96459 0.13229 h 0.13229 12.96459 0.13229 v -0.13229 -12.96459 -0.13229 h -0.13229 -12.96459 z m 0.26458,0.26458 h 12.7 v 12.7 h -12.7 z"
       id="path4797"
       inkscape:connector-curvature="0" />
    <path
       inkscape:connector-curvature="0"
       id="path4805"
       d="m 291.0501,85.943147 v 0.13229 12.96459 0.13229 h 0.13229 12.96459 0.13229 v -0.13229 -12.96459 -0.13229 h -0.13229 -12.96459 z m 0.26458,0.26458 h 12.70001 v 12.7 h -12.70001 z"
       style="color:#000000;font-style:normal;font-variant:normal;font-weight:normal;font-stretch:normal;font-size:medium;line-height:normal;font-family:Sans;-inkscape-font-specification:Sans;text-indent:0;text-align:start;text-decoration:none;text-decoration-line:none;letter-spacing:normal;word-spacing:normal;text-transform:none;writing-mode:lr-tb;direction:ltr;baseline-shift:baseline;text-anchor:start;display:inline;overflow:visible;visibility:visible;fill:#9b9b9b;fill-opacity:1;stroke:none;stroke-width:0.26458335;marker:none;enable-background:accumulate" />
    <path
       inkscape:connector-curvature="0"
       id="path4846"
       d="m 211.6751,101.81815 v 0.13229 12.96459 0.13229 h 0.13229 12.96459 0.13229 v -0.13229 -12.96459 -0.13229 h -0.13229 -12.96459 z m 0.26458,0.26458 h 12.7 v 12.7 h -12.7 z"
       style="color:#000000;font-style:normal;font-variant:normal;font-weight:normal;font-stretch:normal;font-size:medium;line-height:normal;font-family:Sans;-inkscape-font-specification:Sans;text-indent:0;text-align:start;text-decoration:none;text-decoration-line:none;letter-spacing:normal;word-spacing:normal;text-transform:none;writing-mode:lr-tb;direction:ltr;baseline-shift:baseline;text-anchor:start;display:inline;overflow:visible;visibility:visible;fill:#9b9b9b;fill-opacity:1;stroke:none;stroke-width:0.26458335;marker:none;enable-background:accumulate" />
    <path
       style="color:#000000;font-style:normal;font-variant:normal;font-weight:normal;font-stretch:normal;font-size:medium;line-height:normal;font-family:Sans;-inkscape-font-specification:Sans;text-indent:0;text-align:start;text-decoration:none;text-decoration-line:none;letter-spacing:normal;word-spacing:normal;text-transform:none;writing-mode:lr-tb;direction:ltr;baseline-shift:baseline;text-anchor:start;display:inline;overflow:visible;visibility:visible;fill:#9b9b9b;fill-opacity:1;stroke:none;stroke-width:0.26458335;marker:none;enable-background:accumulate"
       d="m 227.5501,101.81815 v 0.13229 12.96459 0.13229 h 0.13229 12.96459 0.13229 v -0.13229 -12.96459 -0.13229 h -0.13229 -12.96459 z m 0.26458,0.26458 h 12.7 v 12.7 h -12.7 z"
       id="path4854"
       inkscape:connector-curvature="0" />
    <path
       style="color:#000000;font-style:normal;font-variant:normal;font-weight:normal;font-stretch:normal;font-size:medium;line-height:normal;font-family:Sans;-inkscape-font-specification:Sans;text-indent:0;text-align:start;text-decoration:none;text-decoration-line:none;letter-spacing:normal;word-spacing:normal;text-transform:none;writing-mode:lr-tb;direction:ltr;baseline-shift:baseline;text-anchor:start;display:inline;overflow:visible;visibility:visible;fill:#9b9b9b;fill-opacity:1;stroke:none;stroke-width:0.26458335;marker:none;enable-background:accumulate"
       d="m 243.4251,101.81815 v 0.13229 12.96459 0.13229 h 0.13229 12.96459 0.13229 v -0.13229 -12.96459 -0.13229 h -0.13229 -12.96459 z m 0.26458,0.26458 h 12.7 v 12.7 h -12.7 z"
       id="path4864"
       inkscape:connector-curvature="0" />
    <path
       inkscape:connector-curvature="0"
       id="path4872"
       d="m 259.3001,101.81815 v 0.13229 12.96459 0.13229 h 0.13229 12.96459 0.13229 v -0.13229 -12.96459 -0.13229 h -0.13229 -12.96459 z m 0.26458,0.26458 h 12.7 v 12.7 h -12.7 z"
       style="color:#000000;font-style:normal;font-variant:normal;font-weight:normal;font-stretch:normal;font-size:medium;line-height:normal;font-family:Sans;-inkscape-font-specification:Sans;text-indent:0;text-align:start;text-decoration:none;text-decoration-line:none;letter-spacing:normal;word-spacing:normal;text-transform:none;writing-mode:lr-tb;direction:ltr;baseline-shift:baseline;text-anchor:start;display:inline;overflow:visible;visibility:visible;fill:#9b9b9b;fill-opacity:1;stroke:none;stroke-width:0.26458335;marker:none;enable-background:accumulate" />
    <path
       inkscape:connector-curvature="0"
       id="path4882"
       d="m 275.1751,101.81815 v 0.13229 12.96459 0.13229 h 0.13229 12.96459 0.13229 v -0.13229 -12.96459 -0.13229 h -0.13229 -12.96459 z m 0.26458,0.26458 h 12.7 v 12.7 h -12.7 z"
       style="color:#000000;font-style:normal;font-variant:normal;font-weight:normal;font-stretch:normal;font-size:medium;line-height:normal;font-family:Sans;-inkscape-font-specification:Sans;text-indent:0;text-align:start;text-decoration:none;text-decoration-line:none;letter-spacing:normal;word-spacing:normal;text-transform:none;writing-mode:lr-tb;direction:ltr;baseline-shift:baseline;text-anchor:start;display:inline;overflow:visible;visibility:visible;fill:#9b9b9b;fill-opacity:1;stroke:none;stroke-width:0.26458335;marker:none;enable-background:accumulate" />
    <path
       style="color:#000000;font-style:normal;font-variant:normal;font-weight:normal;font-stretch:normal;font-size:medium;line-height:normal;font-family:Sans;-inkscape-font-specification:Sans;text-indent:0;text-align:start;text-decoration:none;text-decoration-line:none;letter-spacing:normal;word-spacing:normal;text-transform:none;writing-mode:lr-tb;direction:ltr;baseline-shift:baseline;text-anchor:start;display:inline;overflow:visible;visibility:visible;fill:#9b9b9b;fill-opacity:1;stroke:none;stroke-width:0.26458335;marker:none;enable-background:accumulate"
       d="m 291.0501,101.81815 v 0.13229 12.96459 0.13229 h 0.13229 12.96459 0.13229 v -0.13229 -12.96459 -0.13229 h -0.13229 -12.96459 z m 0.26458,0.26458 h 12.70001 v 12.7 h -12.70001 z"
       id="path4890"
       inkscape:connector-curvature="0" />
    <path
       inkscape:connector-curvature="0"
       id="path4902"
       d="m 211.6751,117.69315 v 0.13229 12.96459 0.13229 h 0.13229 12.96459 0.13229 v -0.13229 -12.96459 -0.13229 h -0.13229 -12.96459 z m 0.26458,0.26458 h 12.7 v 12.7 h -12.7 z"
       style="color:#000000;font-style:normal;font-variant:normal;font-weight:normal;font-stretch:normal;font-size:medium;line-height:normal;font-family:Sans;-inkscape-font-specification:Sans;text-indent:0;text-align:start;text-decoration:none;text-decoration-line:none;letter-spacing:normal;word-spacing:normal;text-transform:none;writing-mode:lr-tb;direction:ltr;baseline-shift:baseline;text-anchor:start;display:inline;overflow:visible;visibility:visible;fill:#9b9b9b;fill-opacity:1;stroke:none;stroke-width:0.26458335;marker:none;enable-background:accumulate" />
    <path
       style="color:#000000;font-style:normal;font-variant:normal;font-weight:normal;font-stretch:normal;font-size:medium;line-height:normal;font-family:Sans;-inkscape-font-specification:Sans;text-indent:0;text-align:start;text-decoration:none;text-decoration-line:none;letter-spacing:normal;word-spacing:normal;text-transform:none;writing-mode:lr-tb;direction:ltr;baseline-shift:baseline;text-anchor:start;display:inline;overflow:visible;visibility:visible;fill:#9b9b9b;fill-opacity:1;stroke:none;stroke-width:0.26458335;marker:none;enable-background:accumulate"
       d="m 227.5501,117.69315 v 0.13229 12.96459 0.13229 h 0.13229 12.96459 0.13229 v -0.13229 -12.96459 -0.13229 h -0.13229 -12.96459 z m 0.26458,0.26458 h 12.7 v 12.7 h -12.7 z"
       id="path4910"
       inkscape:connector-curvature="0" />
    <path
       style="color:#000000;font-style:normal;font-variant:normal;font-weight:normal;font-stretch:normal;font-size:medium;line-height:normal;font-family:Sans;-inkscape-font-specification:Sans;text-indent:0;text-align:start;text-decoration:none;text-decoration-line:none;letter-spacing:normal;word-spacing:normal;text-transform:none;writing-mode:lr-tb;direction:ltr;baseline-shift:baseline;text-anchor:start;display:inline;overflow:visible;visibility:visible;fill:#9b9b9b;fill-opacity:1;stroke:none;stroke-width:0.26458335;marker:none;enable-background:accumulate"
       d="m 243.4251,117.69315 v 0.13229 12.96459 0.13229 h 0.13229 12.96459 0.13229 v -0.13229 -12.96459 -0.13229 h -0.13229 -12.96459 z m 0.26458,0.26458 h 12.7 v 12.7 h -12.7 z"
       id="path4920"
       inkscape:connector-curvature="0" />
    <path
       inkscape:connector-curvature="0"
       id="path4928"
       d="m 259.3001,117.69315 v 0.13229 12.96459 0.13229 h 0.13229 12.96459 0.13229 v -0.13229 -12.96459 -0.13229 h -0.13229 -12.96459 z m 0.26458,0.26458 h 12.7 v 12.7 h -12.7 z"
       style="color:#000000;font-style:normal;font-variant:normal;font-weight:normal;font-stretch:normal;font-size:medium;line-height:normal;font-family:Sans;-inkscape-font-specification:Sans;text-indent:0;text-align:start;text-decoration:none;text-decoration-line:none;letter-spacing:normal;word-spacing:normal;text-transform:none;writing-mode:lr-tb;direction:ltr;baseline-shift:baseline;text-anchor:start;display:inline;overflow:visible;visibility:visible;fill:#9b9b9b;fill-opacity:1;stroke:none;stroke-width:0.26458335;marker:none;enable-background:accumulate" />
    <path
       inkscape:connector-curvature="0"
       id="path4938"
       d="m 275.1751,117.69315 v 0.13229 12.96459 0.13229 h 0.13229 12.96459 0.13229 v -0.13229 -12.96459 -0.13229 h -0.13229 -12.96459 z m 0.26458,0.26458 h 12.7 v 12.7 h -12.7 z"
       style="color:#000000;font-style:normal;font-variant:normal;font-weight:normal;font-stretch:normal;font-size:medium;line-height:normal;font-family:Sans;-inkscape-font-specification:Sans;text-indent:0;text-align:start;text-decoration:none;text-decoration-line:none;letter-spacing:normal;word-spacing:normal;text-transform:none;writing-mode:lr-tb;direction:ltr;baseline-shift:baseline;text-anchor:start;display:inline;overflow:visible;visibility:visible;fill:#9b9b9b;fill-opacity:1;stroke:none;stroke-width:0.26458335;marker:none;enable-background:accumulate" />
    <path
       style="color:#000000;font-style:normal;font-variant:normal;font-weight:normal;font-stretch:normal;font-size:medium;line-height:normal;font-family:Sans;-inkscape-font-specification:Sans;text-indent:0;text-align:start;text-decoration:none;text-decoration-line:none;letter-spacing:normal;word-spacing:normal;text-transform:none;writing-mode:lr-tb;direction:ltr;baseline-shift:baseline;text-anchor:start;display:inline;overflow:visible;visibility:visible;fill:#9b9b9b;fill-opacity:1;stroke:none;stroke-width:0.26458335;marker:none;enable-background:accumulate"
       d="m 291.0501,117.69315 v 0.13229 12.96459 0.13229 h 0.13229 12.96459 0.13229 v -0.13229 -12.96459 -0.13229 h -0.13229 -12.96459 z m 0.26458,0.26458 h 12.70001 v 12.7 h -12.70001 z"
       id="path4946"
       inkscape:connector-curvature="0" />
    <path
       style="color:#000000;font-style:normal;font-variant:normal;font-weight:normal;font-stretch:normal;font-size:medium;line-height:normal;font-family:Sans;-inkscape-font-specification:Sans;text-indent:0;text-align:start;text-decoration:none;text-decoration-line:none;letter-spacing:normal;word-spacing:normal;text-transform:none;writing-mode:lr-tb;direction:ltr;baseline-shift:baseline;text-anchor:start;display:inline;overflow:visible;visibility:visible;fill:#9b9b9b;fill-opacity:1;stroke:none;stroke-width:0.26458335;marker:none;enable-background:accumulate"
       d="m 211.6751,133.56815 v 0.13229 12.96459 0.13229 h 0.13229 12.96459 0.13229 v -0.13229 -12.96459 -0.13229 h -0.13229 -12.96459 z m 0.26458,0.26458 h 12.7 v 12.7 h -12.7 z"
       id="path4958"
       inkscape:connector-curvature="0" />
    <path
       inkscape:connector-curvature="0"
       id="path4966"
       d="m 227.5501,133.56815 v 0.13229 12.96459 0.13229 h 0.13229 12.96459 0.13229 v -0.13229 -12.96459 -0.13229 h -0.13229 -12.96459 z m 0.26458,0.26458 h 12.7 v 12.7 h -12.7 z"
       style="color:#000000;font-style:normal;font-variant:normal;font-weight:normal;font-stretch:normal;font-size:medium;line-height:normal;font-family:Sans;-inkscape-font-specification:Sans;text-indent:0;text-align:start;text-decoration:none;text-decoration-line:none;letter-spacing:normal;word-spacing:normal;text-transform:none;writing-mode:lr-tb;direction:ltr;baseline-shift:baseline;text-anchor:start;display:inline;overflow:visible;visibility:visible;fill:#9b9b9b;fill-opacity:1;stroke:none;stroke-width:0.26458335;marker:none;enable-background:accumulate" />
    <path
       inkscape:connector-curvature="0"
       id="path4976"
       d="m 243.4251,133.56815 v 0.13229 12.96459 0.13229 h 0.13229 12.96459 0.13229 v -0.13229 -12.96459 -0.13229 h -0.13229 -12.96459 z m 0.26458,0.26458 h 12.7 v 12.7 h -12.7 z"
       style="color:#000000;font-style:normal;font-variant:normal;font-weight:normal;font-stretch:normal;font-size:medium;line-height:normal;font-family:Sans;-inkscape-font-specification:Sans;text-indent:0;text-align:start;text-decoration:none;text-decoration-line:none;letter-spacing:normal;word-spacing:normal;text-transform:none;writing-mode:lr-tb;direction:ltr;baseline-shift:baseline;text-anchor:start;display:inline;overflow:visible;visibility:visible;fill:#9b9b9b;fill-opacity:1;stroke:none;stroke-width:0.26458335;marker:none;enable-background:accumulate" />
    <path
       style="color:#000000;font-style:normal;font-variant:normal;font-weight:normal;font-stretch:normal;font-size:medium;line-height:normal;font-family:Sans;-inkscape-font-specification:Sans;text-indent:0;text-align:start;text-decoration:none;text-decoration-line:none;letter-spacing:normal;word-spacing:normal;text-transform:none;writing-mode:lr-tb;direction:ltr;baseline-shift:baseline;text-anchor:start;display:inline;overflow:visible;visibility:visible;fill:#9b9b9b;fill-opacity:1;stroke:none;stroke-width:0.26458335;marker:none;enable-background:accumulate"
       d="m 259.3001,133.56815 v 0.13229 12.96459 0.13229 h 0.13229 12.96459 0.13229 v -0.13229 -12.96459 -0.13229 h -0.13229 -12.96459 z m 0.26458,0.26458 h 12.7 v 12.7 h -12.7 z"
       id="path4984"
       inkscape:connector-curvature="0" />
    <path
       style="color:#000000;font-style:normal;font-variant:normal;font-weight:normal;font-stretch:normal;font-size:medium;line-height:normal;font-family:Sans;-inkscape-font-specification:Sans;text-indent:0;text-align:start;text-decoration:none;text-decoration-line:none;letter-spacing:normal;word-spacing:normal;text-transform:none;writing-mode:lr-tb;direction:ltr;baseline-shift:baseline;text-anchor:start;display:inline;overflow:visible;visibility:visible;fill:#9b9b9b;fill-opacity:1;stroke:none;stroke-width:0.26458335;marker:none;enable-background:accumulate"
       d="m 275.1751,133.56815 v 0.13229 12.96459 0.13229 h 0.13229 12.96459 0.13229 v -0.13229 -12.96459 -0.13229 h -0.13229 -12.96459 z m 0.26458,0.26458 h 12.7 v 12.7 h -12.7 z"
       id="path4994"
       inkscape:connector-curvature="0" />
    <path
       inkscape:connector-curvature="0"
       id="path5002"
       d="m 291.0501,133.56815 v 0.13229 12.96459 0.13229 h 0.13229 12.96459 0.13229 v -0.13229 -12.96459 -0.13229 h -0.13229 -12.96459 z m 0.26458,0.26458 h 12.70001 v 12.7 h -12.70001 z"
       style="color:#000000;font-style:normal;font-variant:normal;font-weight:normal;font-stretch:normal;font-size:medium;line-height:normal;font-family:Sans;-inkscape-font-specification:Sans;text-indent:0;text-align:start;text-decoration:none;text-decoration-line:none;letter-spacing:normal;word-spacing:normal;text-transform:none;writing-mode:lr-tb;direction:ltr;baseline-shift:baseline;text-anchor:start;display:inline;overflow:visible;visibility:visible;fill:#9b9b9b;fill-opacity:1;stroke:none;stroke-width:0.26458335;marker:none;enable-background:accumulate" />
    <path
       inkscape:connector-curvature="0"
       id="path3694"
       d="m 232.86244,89.382727 c -0.59772,0 -1.07901,0.50087 -1.07901,1.09141 v 4.16719 c 0,0.59054 0.48129,1.0914 1.07901,1.0914 h 2.60449 c 0.59771,0 1.079,-0.50086 1.079,-1.0914 v -4.16719 c 0,-0.59054 -0.48129,-1.09141 -1.079,-1.09141 z m 0.28525,0.99219 c 0.0317,-0.006 0.0656,0 0.0992,0 h 1.83555 c 0.26897,0 0.48369,0.21473 0.48369,0.48369 v 2.70371 c 0,0.26897 -0.21472,0.48369 -0.48369,0.48369 h -1.83555 c -0.26897,0 -0.48369,-0.21472 -0.48369,-0.48369 v -2.70371 c 0,-0.23535 0.16284,-0.43856 0.38447,-0.48369 z m 1.01699,4.10518 c 0.22428,0 0.40928,0.18499 0.40928,0.40927 0,0.22428 -0.185,0.40928 -0.40928,0.40928 -0.22428,0 -0.40927,-0.185 -0.40927,-0.40928 0,-0.22428 0.18499,-0.40927 0.40927,-0.40927 z"
       style="color:#000000;display:inline;overflow:visible;visibility:visible;fill:#1a1a1a;fill-opacity:1;fill-rule:nonzero;stroke:none;stroke-width:1.984375;marker:none;enable-background:accumulate" />
    <path
       style="color:#000000;display:inline;overflow:visible;visibility:visible;fill:#1a1a1a;fill-opacity:1;fill-rule:nonzero;stroke:none;stroke-width:1.984375;marker:none;enable-background:accumulate"
       d="m 234.16468,105.25773 c -1.7535,0 -3.175,1.4215 -3.175,3.175 0,1.75351 1.4215,3.175 3.175,3.175 1.75351,0 3.175,-1.42149 3.175,-3.175 0,-1.7535 -1.42149,-3.175 -3.175,-3.175 z m -0.80201,1.20717 h 1.60403 c 0.36942,0 0.66973,0.313 0.66973,0.67799 v 2.57142 c 0,0.36499 -0.30031,0.67799 -0.66973,0.67799 h -1.60403 c -0.36943,0 -0.66973,-0.313 -0.66973,-0.67799 v -2.57142 c 0,-0.36499 0.3003,-0.67799 0.66973,-0.67799 z m 0.17363,0.61184 c -0.13698,0.0279 -0.23978,0.16047 -0.23978,0.30593 v 1.67018 c 0,0.16624 0.13142,0.29766 0.29766,0.29766 h 1.14101 c 0.16624,0 0.29766,-0.13142 0.29766,-0.29766 v -1.67018 c 0,-0.16623 -0.13142,-0.30593 -0.29766,-0.30593 h -1.14101 c -0.0208,0 -0.0383,-0.004 -0.0579,0 z m 0.62838,2.53835 c -0.13861,0 -0.25631,0.1177 -0.25631,0.25632 0,0.13861 0.1177,0.24804 0.25631,0.24804 0.13862,0 0.25632,-0.10943 0.25632,-0.24804 0,-0.13862 -0.1177,-0.25632 -0.25632,-0.25632 z"
       id="path3709"
       inkscape:connector-curvature="0" />
    <path
       style="color:#000000;display:inline;overflow:visible;visibility:visible;fill:#1a1a1a;fill-opacity:1;fill-rule:nonzero;stroke:none;stroke-width:1.984375;marker:none;enable-background:accumulate"
       d="m 231.92399,121.13273 c -0.51823,0 -0.93431,0.41608 -0.93431,0.93431 v 4.48138 c 0,0.51824 0.41608,0.93431 0.93431,0.93431 h 4.48138 c 0.51824,0 0.93431,-0.41607 0.93431,-0.93431 v -4.48138 c 0,-0.51823 -0.41607,-0.93431 -0.93431,-0.93431 z m 1.34772,0.99219 h 1.78594 c 0.41093,0 0.74414,0.34641 0.74414,0.75241 v 2.86081 c 0,0.406 -0.33321,0.75241 -0.74414,0.75241 h -1.78594 c -0.41093,0 -0.74414,-0.34641 -0.74414,-0.75241 v -2.86081 c 0,-0.406 0.33321,-0.75241 0.74414,-0.75241 z m 0.19017,0.68626 c -0.15237,0.031 -0.26458,0.16893 -0.26458,0.33073 v 1.86036 c 0,0.18491 0.15408,0.33072 0.339,0.33072 h 1.25677 c 0.18492,0 0.339,-0.14581 0.339,-0.33072 v -1.86036 c 0,-0.18491 -0.15408,-0.33073 -0.339,-0.33073 h -1.25677 c -0.0231,0 -0.0526,-0.004 -0.0744,0 z m 0.7028,2.81947 c -0.15419,0 -0.28112,0.12693 -0.28112,0.28112 0,0.15419 0.12693,0.28112 0.28112,0.28112 0.15419,0 0.28112,-0.12693 0.28112,-0.28112 0,-0.15419 -0.12693,-0.28112 -0.28112,-0.28112 z"
       id="rect3714"
       inkscape:connector-curvature="0" />
    <path
       style="color:#000000;font-style:normal;font-variant:normal;font-weight:normal;font-stretch:normal;font-size:medium;line-height:normal;font-family:Sans;-inkscape-font-specification:Sans;text-indent:0;text-align:start;text-decoration:none;text-decoration-line:none;letter-spacing:normal;word-spacing:normal;text-transform:none;writing-mode:lr-tb;direction:ltr;baseline-shift:baseline;text-anchor:start;display:inline;overflow:visible;visibility:visible;fill:#1a1a1a;fill-opacity:1;stroke:none;stroke-width:0.5291667;marker:none;enable-background:accumulate"
       d="m 234.16468,136.74315 c -1.89649,0 -3.43958,1.54309 -3.43958,3.43958 0,1.8965 1.54309,3.43959 3.43958,3.43959 1.8965,0 3.43959,-1.54309 3.43959,-3.43959 0,-1.89649 -1.54309,-3.43958 -3.43959,-3.43958 z m 0,0.52917 c 1.61052,0 2.91042,1.29991 2.91042,2.91041 0,1.61052 -1.2999,2.91042 -2.91042,2.91042 -1.61051,0 -2.91041,-1.2999 -2.91041,-2.91042 0,-1.6105 1.2999,-2.91041 2.91041,-2.91041 z m -0.83509,0.8847 c -0.38187,0 -0.68626,0.31724 -0.68626,0.69453 v 2.66237 c 0,0.37729 0.30439,0.7028 0.68626,0.7028 h 1.67018 c 0.38188,0 0.68627,-0.32551 0.68627,-0.7028 v -2.66237 c 0,-0.37729 -0.30439,-0.69453 -0.68627,-0.69453 z m 0.1819,0.63665 c 0.0202,-0.004 0.0447,0 0.0661,0 h 1.17409 c 0.17184,0 0.30592,0.13409 0.30592,0.30593 v 1.72806 c 0,0.17184 -0.13408,0.30592 -0.30592,0.30592 h -1.17409 c -0.17184,0 -0.30593,-0.13408 -0.30593,-0.30592 v -1.72806 c 0,-0.15036 0.0982,-0.2771 0.23978,-0.30593 z m 0.65319,2.62103 c 0.14329,0 0.26459,0.11302 0.26459,0.25632 0,0.14328 -0.1213,0.26458 -0.26459,0.26458 -0.14329,0 -0.26458,-0.1213 -0.26458,-0.26458 0,-0.1433 0.12129,-0.25632 0.26458,-0.25632 z"
       id="path3721"
       inkscape:connector-curvature="0" />
    <path
       inkscape:connector-curvature="0"
       id="path3751"
       d="m 250.04382,89.382727 -3.03444,1.95131 v 4.39869 h 6.06061 v -4.39869 z m -2.27377,3.12539 1.51309,0.97566 -1.51309,0.96738 z m 4.54753,0 v 1.94304 l -1.51309,-0.97565 z m -2.27376,1.31465 1.78593,1.14929 h -3.57187 z"
       style="color:#000000;font-style:normal;font-variant:normal;font-weight:normal;font-stretch:normal;font-size:medium;line-height:normal;font-family:Sans;-inkscape-font-specification:Sans;text-indent:0;text-align:start;text-decoration:none;text-decoration-line:none;letter-spacing:normal;word-spacing:normal;text-transform:none;writing-mode:lr-tb;direction:ltr;baseline-shift:baseline;text-anchor:start;display:inline;overflow:visible;visibility:visible;fill:#1a1a1a;fill-opacity:1;fill-rule:nonzero;stroke:none;stroke-width:1.58749998;marker:none;enable-background:accumulate" />
    <path
       style="color:#000000;display:inline;overflow:visible;visibility:visible;fill:#1a1a1a;fill-opacity:1;fill-rule:nonzero;stroke:none;stroke-width:1.984375;marker:none;enable-background:accumulate"
       d="m 250.03968,105.25773 c -1.7535,0 -3.175,1.4215 -3.175,3.175 0,1.75351 1.4215,3.175 3.175,3.175 1.75351,0 3.175,-1.42149 3.175,-3.175 0,-1.7535 -1.42149,-3.175 -3.175,-3.175 z m -0.0661,0.84336 a 0.46372868,0.46372868 0 0 1 0.0165,0 0.46372868,0.46372868 0 0 1 0.30593,0.0744 l 1.50482,0.95911 a 0.46372868,0.46372868 0 0 1 0.21497,0.38861 v 2.19108 a 0.46372868,0.46372868 0 0 1 -0.46302,0.46302 h -3.0179 a 0.46372868,0.46372868 0 0 1 -0.46302,-0.46302 v -2.19108 a 0.46372868,0.46372868 0 0 1 0.21497,-0.38861 l 1.51309,-0.96738 a 0.46372868,0.46372868 0 0 1 0.17363,-0.0661 z m 0.0744,0.45476 -1.50482,0.97565 v 2.18281 h 3.00137 v -2.18281 z m -1.13275,1.55442 0.75241,0.48783 -0.75241,0.47956 z m 2.25723,0 v 0.96739 l -0.75241,-0.48783 z m -1.12448,0.65319 0.8847,0.57051 h -1.7694 z"
       id="path3772"
       inkscape:connector-curvature="0" />
    <path
       style="color:#000000;display:inline;overflow:visible;visibility:visible;fill:#1a1a1a;fill-opacity:1;fill-rule:nonzero;stroke:none;stroke-width:1.984375;marker:none;enable-background:accumulate"
       d="m 247.80726,121.13273 c -0.51823,0 -0.94258,0.41608 -0.94258,0.93431 v 4.48138 c 0,0.51824 0.42435,0.93431 0.94258,0.93431 h 4.47311 c 0.51824,0 0.93431,-0.41607 0.93431,-0.93431 v -4.48138 c 0,-0.51823 -0.41607,-0.93431 -0.93431,-0.93431 z m 2.16628,0.94258 a 0.48572654,0.48572654 0 0 1 0.0165,0 0.48572654,0.48572654 0 0 1 0.3142,0.0744 l 1.57923,1.00872 a 0.48572654,0.48572654 0 0 1 0.22324,0.40514 v 2.29857 a 0.48572654,0.48572654 0 0 1 -0.47956,0.47956 h -3.16673 a 0.48572654,0.48572654 0 0 1 -0.47956,-0.47956 v -2.29857 a 0.48572654,0.48572654 0 0 1 0.22325,-0.40514 l 1.5875,-1.01699 a 0.48572654,0.48572654 0 0 1 0.1819,-0.0661 z m 0.0744,0.47956 -1.57923,1.01699 v 2.2903 h 3.1502 v -2.2903 z m -1.18235,1.62884 0.78548,0.50436 -0.78548,0.50436 z m 2.36471,0 v 1.00872 l -0.78548,-0.50436 z m -1.18236,0.678 0.92604,0.60358 h -1.86035 z"
       id="path3838"
       inkscape:connector-curvature="0" />
    <path
       style="color:#000000;font-style:normal;font-variant:normal;font-weight:normal;font-stretch:normal;font-size:medium;line-height:normal;font-family:Sans;-inkscape-font-specification:Sans;text-indent:0;text-align:start;text-decoration:none;text-decoration-line:none;letter-spacing:normal;word-spacing:normal;text-transform:none;writing-mode:lr-tb;direction:ltr;baseline-shift:baseline;text-anchor:start;display:inline;overflow:visible;visibility:visible;fill:#1a1a1a;fill-opacity:1;stroke:none;stroke-width:0.5291667;marker:none;enable-background:accumulate"
       d="m 250.03968,136.74315 c -1.89649,0 -3.43958,1.54309 -3.43958,3.43958 0,1.8965 1.54309,3.43959 3.43958,3.43959 1.8965,0 3.43959,-1.54309 3.43959,-3.43959 0,-1.89649 -1.54309,-3.43958 -3.43959,-3.43958 z m 0,0.52917 c 1.61052,0 2.91042,1.29991 2.91042,2.91041 0,1.61052 -1.2999,2.91042 -2.91042,2.91042 -1.61051,0 -2.91041,-1.2999 -2.91041,-2.91042 0,-1.6105 1.2999,-2.91041 2.91041,-2.91041 z m 0.008,0.71933 -1.84382,1.18236 v 2.67064 h 3.67937 v -2.67064 z m -1.3808,1.89343 0.91778,0.59531 -0.91778,0.58704 z m 2.76159,0 v 1.18235 l -0.91777,-0.59531 z m -1.38079,0.80202 1.08314,0.69453 h -2.16628 z"
       id="path3848"
       inkscape:connector-curvature="0" />
    <path
       id="path3864"
       d="m 281.78968,89.382727 c -1.45274,0 -2.62929,1.17656 -2.62929,2.6293 0,0.72637 0.3012,1.38434 0.77721,1.86035 l 1.85208,1.86035 1.86036,-1.86035 c 0.47601,-0.47601 0.76894,-1.13398 0.76894,-1.86035 0,-1.45274 -1.17655,-2.6293 -2.6293,-2.6293 z m 0.008,1.43868 c 0.65567,0 1.18236,0.53495 1.18236,1.19062 0,0.65567 -0.52669,1.19063 -1.18236,1.19063 -0.65567,0 -1.19063,-0.53496 -1.19063,-1.19063 0,-0.65567 0.53496,-1.19062 1.19063,-1.19062 z"
       style="color:#000000;display:inline;overflow:visible;visibility:visible;fill:#1a1a1a;fill-opacity:1;fill-rule:nonzero;stroke:none;stroke-width:0.92736465;marker:none;enable-background:accumulate"
       inkscape:connector-curvature="0" />
    <path
       style="color:#000000;display:inline;overflow:visible;visibility:visible;fill:#1a1a1a;fill-opacity:1;fill-rule:nonzero;stroke:none;stroke-width:1.984375;marker:none;enable-background:accumulate"
       d="m 281.78968,105.25773 c -1.7535,0 -3.175,1.4215 -3.175,3.175 0,1.75351 1.4215,3.175 3.175,3.175 1.75351,0 3.175,-1.42149 3.175,-3.175 0,-1.7535 -1.42149,-3.175 -3.175,-3.175 z m 0,1.11621 c 0.94109,0 1.70326,0.76218 1.70326,1.70326 0,0.47054 -0.18773,0.8988 -0.49609,1.20716 l -1.20717,1.19889 -1.19889,-1.19889 c -0.30836,-0.30836 -0.50436,-0.73662 -0.50436,-1.20716 0,-0.94108 0.76217,-1.70326 1.70325,-1.70326 z m 0.008,0.93431 c -0.42474,0 -0.77721,0.34421 -0.77721,0.76895 0,0.42474 0.35247,0.76895 0.77721,0.76895 0.42474,0 0.76068,-0.34421 0.76068,-0.76895 0,-0.42474 -0.33594,-0.76895 -0.76068,-0.76895 z"
       id="path3877"
       inkscape:connector-curvature="0" />
    <path
       style="color:#000000;display:inline;overflow:visible;visibility:visible;fill:#1a1a1a;fill-opacity:1;fill-rule:nonzero;stroke:none;stroke-width:1.984375;marker:none;enable-background:accumulate"
       d="m 279.54899,121.13273 c -0.51823,0 -0.93431,0.41608 -0.93431,0.93431 v 4.48138 c 0,0.51824 0.41608,0.93431 0.93431,0.93431 h 4.48138 c 0.51824,0 0.93431,-0.41607 0.93431,-0.93431 v -4.48138 c 0,-0.51823 -0.41607,-0.93431 -0.93431,-0.93431 z m 2.24069,1.11621 c 0.94109,0 1.70326,0.76218 1.70326,1.70326 0,0.47054 -0.18773,0.8988 -0.49609,1.20716 l -1.20717,1.20716 -1.19889,-1.20716 c -0.30836,-0.30836 -0.50436,-0.73662 -0.50436,-1.20716 0,-0.94108 0.76217,-1.70326 1.70325,-1.70326 z m 0.008,0.93431 c -0.42474,0 -0.77721,0.34421 -0.77721,0.76895 0,0.42474 0.35247,0.77721 0.77721,0.77721 0.42474,0 0.76068,-0.35247 0.76068,-0.77721 0,-0.42474 -0.33594,-0.76895 -0.76068,-0.76895 z"
       id="path3884"
       inkscape:connector-curvature="0" />
    <path
       style="color:#000000;font-style:normal;font-variant:normal;font-weight:normal;font-stretch:normal;font-size:medium;line-height:normal;font-family:Sans;-inkscape-font-specification:Sans;text-indent:0;text-align:start;text-decoration:none;text-decoration-line:none;letter-spacing:normal;word-spacing:normal;text-transform:none;writing-mode:lr-tb;direction:ltr;baseline-shift:baseline;text-anchor:start;display:inline;overflow:visible;visibility:visible;fill:#1a1a1a;fill-opacity:1;stroke:none;stroke-width:0.5291667;marker:none;enable-background:accumulate"
       d="m 281.78968,136.74315 c -1.89649,0 -3.43958,1.54309 -3.43958,3.43958 0,1.8965 1.54309,3.43959 3.43958,3.43959 1.8965,0 3.43959,-1.54309 3.43959,-3.43959 0,-1.89649 -1.54309,-3.43958 -3.43959,-3.43958 z m 0,0.52917 c 1.61052,0 2.91042,1.29991 2.91042,2.91041 0,1.61052 -1.2999,2.91042 -2.91042,2.91042 -1.61051,0 -2.91041,-1.2999 -2.91041,-2.91042 0,-1.6105 1.2999,-2.91041 2.91041,-2.91041 z m 0,0.93431 c -0.90453,0 -1.6371,0.73257 -1.6371,1.63711 0,0.45227 0.19144,0.86117 0.48782,1.15755 l 1.14928,1.15755 1.15756,-1.15755 c 0.29638,-0.29638 0.47955,-0.70528 0.47955,-1.15755 0,-0.90454 -0.73257,-1.63711 -1.63711,-1.63711 z m 0.008,0.89297 c 0.40825,0 0.73587,0.33589 0.73587,0.74414 0,0.40825 -0.32762,0.74414 -0.73587,0.74414 -0.40825,0 -0.74414,-0.33589 -0.74414,-0.74414 0,-0.40825 0.33589,-0.74414 0.74414,-0.74414 z"
       id="path3888"
       inkscape:connector-curvature="0" />
    <path
       style="font-style:normal;font-variant:normal;font-weight:900;font-stretch:normal;font-size:21.22015953px;line-height:125%;font-family:Montserrat;-inkscape-font-specification:'Montserrat Heavy';text-align:start;letter-spacing:0.53050399px;word-spacing:0px;writing-mode:lr-tb;text-anchor:start;fill:#1a1a1a;fill-opacity:1;stroke:none;stroke-width:0.26458335"
       inkscape:connector-curvature="0"
       id="path4441"
       d="m 299.55397,94.525617 1.28572,-3.93577 h -1.33064 l -0.58391,2.58267 -0.59514,-2.58267 -1.26887,0.006 -0.58391,2.57706 -0.59514,-2.58267 h -1.3924 l 1.2745,3.93576 h 1.34186 l 0.56145,-2.35247 0.54461,2.35247 h 1.34187" />
    <path
       style="color:#000000;display:inline;overflow:visible;visibility:visible;fill:#1a1a1a;fill-opacity:1;fill-rule:nonzero;stroke:none;stroke-width:1.984375;marker:none;enable-background:accumulate"
       d="m 297.66468,105.25773 c -1.7535,0 -3.175,1.4215 -3.175,3.175 0,1.75351 1.4215,3.175 3.175,3.175 1.75351,0 3.17501,-1.42149 3.17501,-3.175 0,-1.7535 -1.4215,-3.175 -3.17501,-3.175 z m -2.10013,2.13321 h 0.92605 l 0.3886,1.71152 0.38861,-1.70325 0.83509,-0.008 0.39688,1.71152 0.3886,-1.71152 h 0.87644 l -0.85163,2.60449 h -0.8847 l -0.36381,-1.55442 -0.37207,1.55442 h -0.8847 l -0.84336,-2.60449 z"
       id="path4443"
       inkscape:connector-curvature="0" />
    <path
       style="color:#000000;display:inline;overflow:visible;visibility:visible;fill:#1a1a1a;fill-opacity:1;fill-rule:nonzero;stroke:none;stroke-width:1.984375;marker:none;enable-background:accumulate"
       d="m 295.42399,121.13273 c -0.51823,0 -0.93431,0.41608 -0.93431,0.93431 v 4.48138 c 0,0.51824 0.41608,0.93431 0.93431,0.93431 h 4.48139 c 0.51823,0 0.93431,-0.41607 0.93431,-0.93431 v -4.48138 c 0,-0.51823 -0.41608,-0.93431 -0.93431,-0.93431 z m 0.14056,2.01745 h 0.92605 l 0.3886,1.70326 0.38861,-1.70326 h 0.83509 l 0.39688,1.70326 0.3886,-1.70326 h 0.87644 l -0.85163,2.59623 h -0.8847 l -0.36381,-1.55443 -0.37207,1.55443 h -0.8847 z"
       id="path4449"
       inkscape:connector-curvature="0" />
    <path
       style="color:#000000;font-style:normal;font-variant:normal;font-weight:normal;font-stretch:normal;font-size:medium;line-height:normal;font-family:Sans;-inkscape-font-specification:Sans;text-indent:0;text-align:start;text-decoration:none;text-decoration-line:none;letter-spacing:normal;word-spacing:normal;text-transform:none;writing-mode:lr-tb;direction:ltr;baseline-shift:baseline;text-anchor:start;display:inline;overflow:visible;visibility:visible;fill:#1a1a1a;fill-opacity:1;stroke:none;stroke-width:0.5291667;marker:none;enable-background:accumulate"
       d="m 297.66468,136.74315 c -1.89649,0 -3.43958,1.54309 -3.43958,3.43958 0,1.8965 1.54309,3.43959 3.43958,3.43959 1.8965,0 3.43959,-1.54309 3.43959,-3.43959 0,-1.89649 -1.54309,-3.43958 -3.43959,-3.43958 z m 0,0.52917 c 1.61052,0 2.91042,1.29991 2.91042,2.91041 0,1.61052 -1.2999,2.91042 -2.91042,2.91042 -1.61051,0 -2.91041,-1.2999 -2.91041,-2.91042 0,-1.6105 1.2999,-2.91041 2.91041,-2.91041 z m -1.98437,1.87689 0.79375,2.46393 h 0.84336 l 0.34726,-1.47175 0.339,1.47175 h 0.84336 l 0.80202,-2.46393 h -0.82682 l -0.37207,1.6123 -0.37207,-1.6123 -0.79375,0.008 -0.36381,1.60404 -0.37207,-1.61231 h -0.86816 z"
       id="path4455"
       inkscape:connector-curvature="0" />
    <path
       style="color:#000000;display:inline;overflow:visible;visibility:visible;fill:#1a1a1a;fill-opacity:1;fill-rule:nonzero;stroke:none;stroke-width:0.92736465;marker:none;enable-background:accumulate"
       d="m 216.68272,94.164697 c 1.13387,1.13387 2.56447,1.68071 3.74378,1.54869 0.21286,-0.0299 0.36443,-0.11253 0.45915,-0.20725 l 0.3272,-0.3272 c 0.0836,-0.08 0.147,-0.18416 0.17926,-0.30454 l 0.05,-0.18592 c 0.0938,-0.35017 -0.11297,-0.70784 -0.46314,-0.80167 l -1.04623,-0.27988 c -0.24075,-0.0645 -0.48481,0.0121 -0.6444,0.18059 l -0.31387,0.31387 c -0.48241,-0.1179 -0.98161,-0.39652 -1.40675,-0.82166 -0.42514,-0.42514 -0.70377,-0.92434 -0.82166,-1.40675 l 0.31387,-0.31387 c 0.16845,-0.15959 0.24509,-0.40366 0.18059,-0.6444 l -0.27989,-1.04624 c -0.0938,-0.35016 -0.45149,-0.55697 -0.80166,-0.46314 l -0.18592,0.05 c -0.12038,0.0323 -0.22451,0.0957 -0.30455,0.17926 l -0.32719,0.3272 c -0.0947,0.0947 -0.17735,0.24628 -0.20725,0.45914 -0.13203,1.17932 0.41482,2.60991 1.54869,3.74379 z"
       id="path4524"
       inkscape:connector-curvature="0" />
    <path
       style="color:#000000;display:inline;overflow:visible;visibility:visible;fill:#1a1a1a;fill-opacity:1;fill-rule:nonzero;stroke:none;stroke-width:1.984375;marker:none;enable-background:accumulate"
       d="m 218.28968,105.25773 c -1.7535,0 -3.175,1.4215 -3.175,3.175 0,1.75351 1.4215,3.175 3.175,3.175 1.75351,0 3.175,-1.42149 3.175,-3.175 0,-1.7535 -1.42149,-3.175 -3.175,-3.175 z m -1.08313,1.45521 c 0.16484,-0.01 0.31933,0.0904 0.3638,0.25632 l 0.14883,0.5705 c 0.0349,0.13041 -0.008,0.26083 -0.0992,0.34727 l -0.16537,0.17363 c 0.0639,0.26131 0.20793,0.5304 0.43822,0.76068 0.23028,0.23029 0.50764,0.38263 0.76894,0.44648 l 0.16537,-0.17363 c 0.0864,-0.0912 0.21686,-0.13415 0.34726,-0.0992 l 0.57051,0.1571 c 0.18968,0.0508 0.29887,0.24027 0.24805,0.42995 l -0.0248,0.0992 c -0.0175,0.0652 -0.054,0.12201 -0.0992,0.16536 l -0.17363,0.1819 c -0.0513,0.0513 -0.13275,0.0913 -0.24805,0.10749 -0.6388,0.0715 -1.41981,-0.22091 -2.03399,-0.83509 -0.61418,-0.61418 -0.9066,-1.38692 -0.83509,-2.02572 0.0162,-0.1153 0.0562,-0.19674 0.10749,-0.24805 l 0.1819,-0.1819 c 0.0434,-0.0453 0.10016,-0.0817 0.16537,-0.0992 l 0.0992,-0.0248 c 0.0237,-0.006 0.0509,-0.007 0.0744,-0.008 z"
       id="path4544"
       inkscape:connector-curvature="0" />
    <path
       style="color:#000000;display:inline;overflow:visible;visibility:visible;fill:#1a1a1a;fill-opacity:1;fill-rule:nonzero;stroke:none;stroke-width:1.984375;marker:none;enable-background:accumulate"
       d="m 216.04899,121.13273 c -0.51823,0 -0.93431,0.41608 -0.93431,0.93431 v 4.48138 c 0,0.51824 0.41608,0.93431 0.93431,0.93431 h 4.48138 c 0.51824,0 0.93431,-0.41607 0.93431,-0.93431 v -4.48138 c 0,-0.51823 -0.41607,-0.93431 -0.93431,-0.93431 z m 1.15756,1.45521 c 0.16484,-0.01 0.31933,0.0986 0.3638,0.26459 l 0.14883,0.56224 c 0.0349,0.1304 -0.008,0.26908 -0.0992,0.35553 l -0.16537,0.16536 c 0.0639,0.26131 0.20793,0.5304 0.43822,0.76068 0.23028,0.23029 0.50764,0.38263 0.76894,0.44649 l 0.16537,-0.16537 c 0.0864,-0.0912 0.21686,-0.13416 0.34726,-0.0992 l 0.57051,0.14883 c 0.18968,0.0508 0.29887,0.24854 0.24805,0.43822 l -0.0248,0.0992 c -0.0175,0.0652 -0.054,0.12201 -0.0992,0.16537 l -0.17363,0.17363 c -0.0513,0.0513 -0.13275,0.0996 -0.24805,0.11576 -0.6388,0.0715 -1.41981,-0.22918 -2.03399,-0.84336 -0.61418,-0.61418 -0.9066,-1.38692 -0.83509,-2.02572 0.0162,-0.1153 0.0562,-0.19674 0.10749,-0.24804 l 0.1819,-0.17364 c 0.0434,-0.0452 0.10016,-0.0817 0.16537,-0.0992 l 0.0992,-0.0248 c 0.0237,-0.006 0.0509,-0.0151 0.0744,-0.0165 z"
       id="path4548"
       inkscape:connector-curvature="0" />
    <path
       style="color:#000000;font-style:normal;font-variant:normal;font-weight:normal;font-stretch:normal;font-size:medium;line-height:normal;font-family:Sans;-inkscape-font-specification:Sans;text-indent:0;text-align:start;text-decoration:none;text-decoration-line:none;letter-spacing:normal;word-spacing:normal;text-transform:none;writing-mode:lr-tb;direction:ltr;baseline-shift:baseline;text-anchor:start;display:inline;overflow:visible;visibility:visible;fill:#1a1a1a;fill-opacity:1;stroke:none;stroke-width:0.5291667;marker:none;enable-background:accumulate"
       d="m 218.28968,136.74315 c -1.89649,0 -3.43958,1.54309 -3.43958,3.43958 0,1.8965 1.54309,3.43959 3.43958,3.43959 1.8965,0 3.43959,-1.54309 3.43959,-3.43959 0,-1.89649 -1.54309,-3.43958 -3.43959,-3.43958 z m 0,0.52917 c 1.61052,0 2.91042,1.29991 2.91042,2.91041 0,1.61052 -1.2999,2.91042 -2.91042,2.91042 -1.61051,0 -2.91041,-1.2999 -2.91041,-2.91042 0,-1.6105 1.2999,-2.91041 2.91041,-2.91041 z m -1.19062,1.02526 c -0.0258,0.002 -0.0484,0.01 -0.0744,0.0165 l -0.11575,0.0248 c -0.0715,0.0191 -0.13438,0.0579 -0.1819,0.10748 l -0.19017,0.19844 c -0.0562,0.0562 -0.10627,0.14646 -0.12402,0.27285 -0.0784,0.70022 0.24453,1.54265 0.91777,2.21589 0.67324,0.67324 1.52393,1.00443 2.22415,0.92604 0.12639,-0.0177 0.21661,-0.0678 0.27285,-0.12402 l 0.19844,-0.19844 c 0.0496,-0.0475 0.0801,-0.11043 0.0992,-0.1819 l 0.0331,-0.10749 c 0.0557,-0.20791 -0.0649,-0.42385 -0.27285,-0.47956 l -0.62012,-0.16536 c -0.14294,-0.0383 -0.29384,0.007 -0.3886,0.10749 l -0.1819,0.19016 c -0.28643,-0.07 -0.58267,-0.2354 -0.83509,-0.48782 -0.25243,-0.25243 -0.41783,-0.54866 -0.48783,-0.83509 l 0.1819,-0.19017 c 0.10002,-0.0948 0.14578,-0.2374 0.10749,-0.38034 l -0.16537,-0.62012 c -0.0487,-0.18192 -0.21618,-0.30036 -0.39687,-0.28939 z"
       id="path4552"
       inkscape:connector-curvature="0" />
    <path
       style="color:#000000;font-style:normal;font-variant:normal;font-weight:normal;font-stretch:normal;font-size:medium;line-height:normal;font-family:Sans;-inkscape-font-specification:Sans;text-indent:0;text-align:start;text-decoration:none;text-decoration-line:none;letter-spacing:normal;word-spacing:normal;text-transform:none;writing-mode:lr-tb;direction:ltr;baseline-shift:baseline;text-anchor:start;display:inline;overflow:visible;visibility:visible;fill:#1a1a1a;fill-opacity:1;fill-rule:nonzero;stroke:none;stroke-width:1.32291675;marker:none;enable-background:accumulate"
       d="m 263.82567,89.382727 v 0.66366 2.35297 h -1.01057 v 3.33337 h 6.19917 v -3.33337 h -1.01057 v -2.35297 -0.66366 h -0.66366 -2.85071 z m 0.76924,0.69383 h 2.65464 v 2.3228 h -2.65464 z m 0.40724,0.31674 v 0.69383 h 1.82506 v -0.69383 z m 0,1.01057 v 0.70891 h 1.82506 v -0.70891 z m -0.8899,2.02114 c 0.35916,0 0.64857,0.28941 0.64857,0.64858 0,0.35917 -0.28941,0.64857 -0.64857,0.64857 -0.35917,0 -0.66366,-0.2894 -0.66366,-0.64857 0,-0.35917 0.30449,-0.64858 0.66366,-0.64858 z"
       id="path4596"
       inkscape:connector-curvature="0" />
    <path
       style="color:#000000;display:inline;overflow:visible;visibility:visible;fill:#1a1a1a;fill-opacity:1;fill-rule:nonzero;stroke:none;stroke-width:1.984375;marker:none;enable-background:accumulate"
       d="m 265.91468,105.25773 c -1.7535,0 -3.175,1.4215 -3.175,3.175 0,1.75351 1.4215,3.175 3.175,3.175 1.75351,0 3.175,-1.42149 3.175,-3.175 0,-1.7535 -1.42149,-3.175 -3.175,-3.175 z m -1.20716,1.17409 h 0.38861 1.64538 0.38034 v 0.38034 1.36426 h 0.58704 v 1.91823 h -3.58014 v -1.91823 h 0.57877 v -1.36426 z m 0.44649,0.39688 v 1.34772 h 1.53789 v -1.34772 z m 0.23978,0.21497 h 1.05006 v 0.27285 h -1.05006 z m 0,0.58705 h 1.05006 v 0.28938 h -1.05006 z m -0.5209,1.13274 c -0.20741,0 -0.38034,0.16466 -0.38034,0.37207 0,0.20742 0.17293,0.38034 0.38034,0.38034 0.20741,0 0.38034,-0.17292 0.38034,-0.38034 0,-0.20741 -0.17293,-0.37207 -0.38034,-0.37207 z"
       id="path4606"
       inkscape:connector-curvature="0" />
    <path
       style="color:#000000;display:inline;overflow:visible;visibility:visible;fill:#1a1a1a;fill-opacity:1;fill-rule:nonzero;stroke:none;stroke-width:1.984375;marker:none;enable-background:accumulate"
       d="m 263.68226,121.13273 c -0.51823,0 -0.94258,0.41608 -0.94258,0.93431 v 4.48138 c 0,0.51824 0.42435,0.93431 0.94258,0.93431 h 4.47311 c 0.51824,0 0.93431,-0.41607 0.93431,-0.93431 v -4.48138 c 0,-0.51823 -0.41607,-0.93431 -0.93431,-0.93431 z m 1.02526,1.33946 h 0.38861 1.64538 0.38034 v 0.3886 1.35599 h 0.58704 v 1.9265 h -3.58014 v -1.9265 h 0.57877 v -1.35599 z m 0.44649,0.40514 v 1.33945 h 1.53789 v -1.33945 z m 0.23978,0.24805 h 1.05006 v 0.27285 h -1.05006 z m 0,0.55397 h 1.05006 v 0.28112 h -1.05006 z m -0.5209,1.13275 c -0.20742,0 -0.38034,0.16465 -0.38034,0.37207 0,0.20741 0.17293,0.37207 0.38034,0.37207 0.20741,0 0.38034,-0.16466 0.38034,-0.37207 0,-0.20742 -0.17293,-0.37207 -0.38034,-0.37207 z"
       id="path4610"
       inkscape:connector-curvature="0" />
    <path
       style="color:#000000;font-style:normal;font-variant:normal;font-weight:normal;font-stretch:normal;font-size:medium;line-height:normal;font-family:Sans;-inkscape-font-specification:Sans;text-indent:0;text-align:start;text-decoration:none;text-decoration-line:none;letter-spacing:normal;word-spacing:normal;text-transform:none;writing-mode:lr-tb;direction:ltr;baseline-shift:baseline;text-anchor:start;display:inline;overflow:visible;visibility:visible;fill:#1a1a1a;fill-opacity:1;stroke:none;stroke-width:0.5291667;marker:none;enable-background:accumulate"
       d="m 265.91468,136.74315 c -1.89649,0 -3.43958,1.54309 -3.43958,3.43958 0,1.8965 1.54309,3.43959 3.43958,3.43959 1.8965,0 3.43959,-1.54309 3.43959,-3.43959 0,-1.89649 -1.54309,-3.43958 -3.43959,-3.43958 z m 0,0.52917 c 1.61052,0 2.91042,1.29991 2.91042,2.91041 0,1.61052 -1.2999,2.91042 -2.91042,2.91042 -1.61051,0 -2.91041,-1.2999 -2.91041,-2.91042 0,-1.6105 1.2999,-2.91041 2.91041,-2.91041 z m -1.20716,0.99219 v 0.3886 1.35599 h -0.57877 v 1.9265 h 3.58014 v -1.9265 h -0.58704 v -1.35599 -0.3886 h -0.38034 -1.64538 z m 0.44649,0.40514 h 1.53789 v 1.33945 h -1.53789 z m 0.23978,0.24805 v 0.27285 h 1.05006 v -0.27285 z m 0,0.55397 v 0.28112 h 1.05006 v -0.28112 z m -0.59532,1.13274 c 0.0247,-0.005 0.0485,0 0.0744,0 0.20741,0 0.38034,0.16466 0.38034,0.37207 0,0.20742 -0.17293,0.37207 -0.38034,0.37207 -0.20741,0 -0.38034,-0.16465 -0.38034,-0.37207 0,-0.18148 0.13331,-0.33724 0.30592,-0.37207 z"
       id="path4614"
       inkscape:connector-curvature="0" />
  </g>
</svg>
