<?xml version="1.0" encoding="UTF-8" standalone="no"?>
<!-- Created with Inkscape (http://www.inkscape.org/) -->

<svg
   xmlns:dc="http://purl.org/dc/elements/1.1/"
   xmlns:cc="http://creativecommons.org/ns#"
   xmlns:rdf="http://www.w3.org/1999/02/22-rdf-syntax-ns#"
   xmlns:svg="http://www.w3.org/2000/svg"
   xmlns="http://www.w3.org/2000/svg"
   xmlns:sodipodi="http://sodipodi.sourceforge.net/DTD/sodipodi-0.dtd"
   xmlns:inkscape="http://www.inkscape.org/namespaces/inkscape"
   width="2400.0002"
   height="4000"
   viewBox="0 0 635.00008 1058.3333"
   version="1.1"
   id="svg8"
   inkscape:version="0.92.4 (5da689c313, 2019-01-14)"
   sodipodi:docname="logo-presentation-template.svg">
  <defs
     id="defs2" />
  <sodipodi:namedview
     id="base"
     pagecolor="#eeeeee"
     bordercolor="#666666"
     borderopacity="1.0"
     inkscape:pageopacity="0"
     inkscape:pageshadow="2"
     inkscape:zoom="0.1767767"
     inkscape:cx="1865.1882"
     inkscape:cy="2057.1538"
     inkscape:document-units="px"
     inkscape:current-layer="layer2"
     showgrid="false"
     fit-margin-top="0"
     fit-margin-left="0"
     fit-margin-right="0"
     fit-margin-bottom="0"
     inkscape:showpageshadow="false"
     borderlayer="true"
     inkscape:window-width="1920"
     inkscape:window-height="1017"
     inkscape:window-x="3832"
     inkscape:window-y="-8"
     inkscape:window-maximized="1"
     inkscape:snap-smooth-nodes="true"
     inkscape:snap-global="false"
     showborder="true"
     units="px" />
  <metadata
     id="metadata5">
    <rdf:RDF>
      <cc:Work
         rdf:about="">
        <dc:format>image/svg+xml</dc:format>
        <dc:type
           rdf:resource="http://purl.org/dc/dcmitype/StillImage" />
        <dc:title></dc:title>
      </cc:Work>
    </rdf:RDF>
  </metadata>
  <g
     inkscape:groupmode="layer"
     id="layer2"
     inkscape:label="Layer 1"
     transform="translate(1029.4938,437.35622)">
    <path
       inkscape:connector-curvature="0"
       id="path2688"
       d="m -1029.4938,-437.35622 h 211.66675 v 132.2916 h -211.66675 z"
       style="opacity:1;fill:#ffffff;fill-opacity:1;fill-rule:nonzero;stroke:none;stroke-width:10.58333302;stroke-linecap:round;stroke-linejoin:miter;stroke-miterlimit:4;stroke-dasharray:none;stroke-dashoffset:0;stroke-opacity:1"
       inkscape:export-xdpi="96"
       inkscape:export-ydpi="96" />
    <path
       style="opacity:1;fill:#1a1a1a;fill-opacity:1;fill-rule:nonzero;stroke:none;stroke-width:10.58333302;stroke-linecap:round;stroke-linejoin:miter;stroke-miterlimit:4;stroke-dasharray:none;stroke-dashoffset:0;stroke-opacity:1"
       d="m -817.82705,-437.35622 h 211.6667 v 132.2916 h -211.6667 z"
       id="path2690"
       inkscape:connector-curvature="0"
       inkscape:export-xdpi="96"
       inkscape:export-ydpi="96" />
    <path
       style="opacity:1;fill:#ffffff;fill-opacity:1;fill-rule:nonzero;stroke:none;stroke-width:10.58333302;stroke-linecap:round;stroke-linejoin:miter;stroke-miterlimit:4;stroke-dasharray:none;stroke-dashoffset:0;stroke-opacity:1"
       d="m -606.16035,-437.35622 h 211.66662 v 132.2916 h -211.66662 z"
       id="path2692"
       inkscape:connector-curvature="0"
       inkscape:export-xdpi="96"
       inkscape:export-ydpi="96" />
    <path
       style="opacity:1;fill:#ffffff;fill-opacity:1;fill-rule:nonzero;stroke:none;stroke-width:10.58333302;stroke-linecap:round;stroke-linejoin:miter;stroke-miterlimit:4;stroke-dasharray:none;stroke-dashoffset:0;stroke-opacity:1"
       d="m -1029.4938,-305.06462 h 211.66675 v 132.2917 h -211.66675 z"
       id="path2694"
       inkscape:connector-curvature="0"
       inkscape:export-xdpi="96"
       inkscape:export-ydpi="96" />
    <path
       inkscape:connector-curvature="0"
       id="path2696"
       d="m -817.82705,-305.06462 h 211.6667 v 132.2917 h -211.6667 z"
       style="opacity:1;fill:#262626;fill-opacity:1;fill-rule:nonzero;stroke:none;stroke-width:10.58333302;stroke-linecap:round;stroke-linejoin:miter;stroke-miterlimit:4;stroke-dasharray:none;stroke-dashoffset:0;stroke-opacity:1"
       inkscape:export-xdpi="96"
       inkscape:export-ydpi="96" />
    <path
       inkscape:connector-curvature="0"
       id="path2698"
       d="m -606.16035,-305.06462 h 211.66662 v 132.2917 h -211.66662 z"
       style="opacity:1;fill:#ffffff;fill-opacity:1;fill-rule:nonzero;stroke:none;stroke-width:10.58333302;stroke-linecap:round;stroke-linejoin:miter;stroke-miterlimit:4;stroke-dasharray:none;stroke-dashoffset:0;stroke-opacity:1"
       inkscape:export-xdpi="96"
       inkscape:export-ydpi="96" />
    <path
       style="opacity:1;fill:#ffffff;fill-opacity:1;fill-rule:nonzero;stroke:none;stroke-width:10.58333302;stroke-linecap:round;stroke-linejoin:miter;stroke-miterlimit:4;stroke-dasharray:none;stroke-dashoffset:0;stroke-opacity:1"
       d="m -1029.4938,-172.77292 h 211.66675 v 132.291703 h -211.66675 z"
       id="path2700"
       inkscape:connector-curvature="0"
       inkscape:export-xdpi="96"
       inkscape:export-ydpi="96" />
    <path
       inkscape:connector-curvature="0"
       id="path2702"
       d="m -817.82705,-172.77292 h 211.6667 v 132.291703 h -211.6667 z"
       style="opacity:1;fill:#1a1a1a;fill-opacity:1;fill-rule:nonzero;stroke:none;stroke-width:10.58333302;stroke-linecap:round;stroke-linejoin:miter;stroke-miterlimit:4;stroke-dasharray:none;stroke-dashoffset:0;stroke-opacity:1"
       inkscape:export-xdpi="96"
       inkscape:export-ydpi="96" />
    <path
       inkscape:connector-curvature="0"
       id="path2704"
       d="m -606.16035,-172.77292 h 211.66662 v 132.291703 h -211.66662 z"
       style="opacity:1;fill:#ffffff;fill-opacity:1;fill-rule:nonzero;stroke:none;stroke-width:10.58333302;stroke-linecap:round;stroke-linejoin:miter;stroke-miterlimit:4;stroke-dasharray:none;stroke-dashoffset:0;stroke-opacity:1"
       inkscape:export-xdpi="96"
       inkscape:export-ydpi="96" />
    <path
       inkscape:connector-curvature="0"
       id="path2706"
       d="m -1029.4938,-40.481217 h 211.66675 v 132.29162 h -211.66675 z"
       style="opacity:1;fill:#ffffff;fill-opacity:1;fill-rule:nonzero;stroke:none;stroke-width:10.58333302;stroke-linecap:round;stroke-linejoin:miter;stroke-miterlimit:4;stroke-dasharray:none;stroke-dashoffset:0;stroke-opacity:1"
       inkscape:export-xdpi="96"
       inkscape:export-ydpi="96" />
    <path
       style="opacity:1;fill:#262626;fill-opacity:1;fill-rule:nonzero;stroke:none;stroke-width:10.58333302;stroke-linecap:round;stroke-linejoin:miter;stroke-miterlimit:4;stroke-dasharray:none;stroke-dashoffset:0;stroke-opacity:1"
       d="m -817.82705,-40.481217 h 211.6667 v 132.29162 h -211.6667 z"
       id="path2708"
       inkscape:connector-curvature="0"
       inkscape:export-xdpi="96"
       inkscape:export-ydpi="96" />
    <path
       style="opacity:1;fill:#ffffff;fill-opacity:1;fill-rule:nonzero;stroke:none;stroke-width:10.58333302;stroke-linecap:round;stroke-linejoin:miter;stroke-miterlimit:4;stroke-dasharray:none;stroke-dashoffset:0;stroke-opacity:1"
       d="m -606.16035,-40.481217 h 211.66662 v 132.29162 h -211.66662 z"
       id="path2710"
       inkscape:connector-curvature="0"
       inkscape:export-xdpi="96"
       inkscape:export-ydpi="96" />
    <path
       inkscape:connector-curvature="0"
       id="path2712"
       d="m -1029.4938,91.810403 h 211.66675 V 224.10209 h -211.66675 z"
       style="opacity:1;fill:#ffffff;fill-opacity:1;fill-rule:nonzero;stroke:none;stroke-width:10.58333302;stroke-linecap:round;stroke-linejoin:miter;stroke-miterlimit:4;stroke-dasharray:none;stroke-dashoffset:0;stroke-opacity:1"
       inkscape:export-xdpi="96"
       inkscape:export-ydpi="96" />
    <path
       style="opacity:1;fill:#1a1a1a;fill-opacity:1;fill-rule:nonzero;stroke:none;stroke-width:10.58333302;stroke-linecap:round;stroke-linejoin:miter;stroke-miterlimit:4;stroke-dasharray:none;stroke-dashoffset:0;stroke-opacity:1"
       d="m -817.82705,91.810403 h 211.6667 V 224.10209 h -211.6667 z"
       id="path2714"
       inkscape:connector-curvature="0"
       inkscape:export-xdpi="96"
       inkscape:export-ydpi="96" />
    <path
       style="opacity:1;fill:#ffffff;fill-opacity:1;fill-rule:nonzero;stroke:none;stroke-width:10.58333302;stroke-linecap:round;stroke-linejoin:miter;stroke-miterlimit:4;stroke-dasharray:none;stroke-dashoffset:0;stroke-opacity:1"
       d="m -606.16035,91.810403 h 211.66662 V 224.10209 h -211.66662 z"
       id="path2716"
       inkscape:connector-curvature="0"
       inkscape:export-xdpi="96"
       inkscape:export-ydpi="96" />
    <path
       style="opacity:1;fill:#ffffff;fill-opacity:1;fill-rule:nonzero;stroke:none;stroke-width:10.58333302;stroke-linecap:round;stroke-linejoin:miter;stroke-miterlimit:4;stroke-dasharray:none;stroke-dashoffset:0;stroke-opacity:1"
       d="m -1029.4938,224.10209 h 211.66675 V 356.3937 h -211.66675 z"
       id="path2718"
       inkscape:connector-curvature="0"
       inkscape:export-xdpi="96"
       inkscape:export-ydpi="96" />
    <path
       inkscape:connector-curvature="0"
       id="path2720"
       d="m -817.82705,224.10209 h 211.6667 V 356.3937 h -211.6667 z"
       style="opacity:1;fill:#262626;fill-opacity:1;fill-rule:nonzero;stroke:none;stroke-width:10.58333302;stroke-linecap:round;stroke-linejoin:miter;stroke-miterlimit:4;stroke-dasharray:none;stroke-dashoffset:0;stroke-opacity:1"
       inkscape:export-xdpi="96"
       inkscape:export-ydpi="96" />
    <path
       inkscape:connector-curvature="0"
       id="path2722"
       d="m -606.16035,224.10209 h 211.66662 V 356.3937 h -211.66662 z"
       style="opacity:1;fill:#ffffff;fill-opacity:1;fill-rule:nonzero;stroke:none;stroke-width:10.58333302;stroke-linecap:round;stroke-linejoin:miter;stroke-miterlimit:4;stroke-dasharray:none;stroke-dashoffset:0;stroke-opacity:1"
       inkscape:export-xdpi="96"
       inkscape:export-ydpi="96" />
    <path
       style="opacity:1;fill:#ffffff;fill-opacity:1;fill-rule:nonzero;stroke:none;stroke-width:10.58333302;stroke-linecap:round;stroke-linejoin:miter;stroke-miterlimit:4;stroke-dasharray:none;stroke-dashoffset:0;stroke-opacity:1"
       d="m -1029.4938,356.3937 h 211.66675 v 132.2917 h -211.66675 z"
       id="path2724"
       inkscape:connector-curvature="0"
       inkscape:export-xdpi="96"
       inkscape:export-ydpi="96" />
    <path
       inkscape:connector-curvature="0"
       id="path2726"
       d="m -817.82705,356.3937 h 211.6667 v 132.2917 h -211.6667 z"
       style="opacity:1;fill:#1a1a1a;fill-opacity:1;fill-rule:nonzero;stroke:none;stroke-width:10.58333302;stroke-linecap:round;stroke-linejoin:miter;stroke-miterlimit:4;stroke-dasharray:none;stroke-dashoffset:0;stroke-opacity:1"
       inkscape:export-xdpi="96"
       inkscape:export-ydpi="96" />
    <path
       inkscape:connector-curvature="0"
       id="path2728"
       d="m -606.16035,356.3937 h 211.66662 v 132.2917 h -211.66662 z"
       style="opacity:1;fill:#ffffff;fill-opacity:1;fill-rule:nonzero;stroke:none;stroke-width:10.58333302;stroke-linecap:round;stroke-linejoin:miter;stroke-miterlimit:4;stroke-dasharray:none;stroke-dashoffset:0;stroke-opacity:1"
       inkscape:export-xdpi="96"
       inkscape:export-ydpi="96" />
    <path
       inkscape:connector-curvature="0"
       id="path2730"
       d="m -1029.4938,488.6854 h 211.66675 v 132.29169 h -211.66675 z"
       style="opacity:1;fill:#ffffff;fill-opacity:1;fill-rule:nonzero;stroke:none;stroke-width:10.58333302;stroke-linecap:round;stroke-linejoin:miter;stroke-miterlimit:4;stroke-dasharray:none;stroke-dashoffset:0;stroke-opacity:1"
       inkscape:export-xdpi="96"
       inkscape:export-ydpi="96" />
    <path
       style="opacity:1;fill:#262626;fill-opacity:1;fill-rule:nonzero;stroke:none;stroke-width:10.58333302;stroke-linecap:round;stroke-linejoin:miter;stroke-miterlimit:4;stroke-dasharray:none;stroke-dashoffset:0;stroke-opacity:1"
       d="m -817.82705,488.6854 h 211.6667 v 132.29169 h -211.6667 z"
       id="path2732"
       inkscape:connector-curvature="0"
       inkscape:export-xdpi="96"
       inkscape:export-ydpi="96" />
    <path
       style="opacity:1;fill:#ffffff;fill-opacity:1;fill-rule:nonzero;stroke:none;stroke-width:10.58333302;stroke-linecap:round;stroke-linejoin:miter;stroke-miterlimit:4;stroke-dasharray:none;stroke-dashoffset:0;stroke-opacity:1"
       d="m -606.16035,488.6854 h 211.66662 v 132.29169 h -211.66662 z"
       id="path2734"
       inkscape:connector-curvature="0"
       inkscape:export-xdpi="96"
       inkscape:export-ydpi="96" />
    <path
       inkscape:connector-curvature="0"
       id="path2756"
       style="font-style:normal;font-variant:normal;font-weight:900;font-stretch:normal;font-size:4.93888903px;line-height:1.25;font-family:Lato;-inkscape-font-specification:'Lato, Heavy';font-variant-ligatures:normal;font-variant-caps:normal;font-variant-numeric:normal;font-feature-settings:normal;text-align:start;letter-spacing:0px;word-spacing:0px;writing-mode:lr-tb;text-anchor:start;fill:#000000;fill-opacity:1;stroke:none;stroke-width:0.26458332"
       d="m -1027.148,-434.30952 v 0.5532 h -2.0496 v -0.5532 h 0.6914 v -1.815 q 0,-0.069 0,-0.1383 0,-0.072 0.01,-0.1432 l -0.4099,0.3407 q -0.054,0.042 -0.1087,0.052 -0.052,0.01 -0.099,0 -0.047,-0.01 -0.084,-0.032 -0.037,-0.025 -0.054,-0.049 l -0.242,-0.321 1.1212,-0.9409 h 0.6321 v 3.0473 z"
       inkscape:export-xdpi="96"
       inkscape:export-ydpi="96" />
    <path
       inkscape:connector-curvature="0"
       id="path2758"
       style="font-style:normal;font-variant:normal;font-weight:900;font-stretch:normal;font-size:4.93888903px;line-height:1.25;font-family:Lato;-inkscape-font-specification:'Lato, Heavy';font-variant-ligatures:normal;font-variant-caps:normal;font-variant-numeric:normal;font-feature-settings:normal;text-align:start;letter-spacing:0px;word-spacing:0px;writing-mode:lr-tb;text-anchor:start;fill:#000000;fill-opacity:1;stroke:none;stroke-width:0.26458332"
       d="m -1027.2322,-302.11762 q 0.1235,0 0.1951,0.069 0.072,0.067 0.072,0.1778 v 0.4445 h -2.5287 v -0.247 q 0,-0.072 0.03,-0.1531 0.03,-0.082 0.1037,-0.1481 l 1.0371,-1.0446 q 0.1334,-0.1334 0.2322,-0.2544 0.099,-0.121 0.163,-0.237 0.064,-0.1186 0.096,-0.2346 0.032,-0.1186 0.032,-0.2494 0,-0.2149 -0.1037,-0.3285 -0.1013,-0.116 -0.3112,-0.116 -0.1704,0 -0.2889,0.091 -0.1161,0.089 -0.1605,0.2223 -0.052,0.1358 -0.1359,0.1802 -0.084,0.044 -0.2395,0.02 l -0.405,-0.072 q 0.039,-0.2692 0.1507,-0.4692 0.1136,-0.2 0.279,-0.3334 0.1679,-0.1333 0.3828,-0.1975 0.2148,-0.067 0.4618,-0.067 0.2667,0 0.479,0.079 0.2149,0.077 0.3655,0.21479 0.1506,0.13831 0.2297,0.331 0.082,0.1901 0.082,0.4198 0,0.1975 -0.057,0.36541 -0.054,0.16799 -0.1507,0.32109 -0.096,0.1506 -0.2247,0.2938 -0.1259,0.14081 -0.2692,0.2865 l -0.7038,0.7211 q 0.1359,-0.042 0.2692,-0.064 0.1334,-0.022 0.247,-0.022 z"
       inkscape:export-xdpi="96"
       inkscape:export-ydpi="96" />
    <path
       inkscape:connector-curvature="0"
       id="path2760"
       style="font-style:normal;font-variant:normal;font-weight:900;font-stretch:normal;font-size:4.93888903px;line-height:1.25;font-family:Lato;-inkscape-font-specification:'Lato, Heavy';font-variant-ligatures:normal;font-variant-caps:normal;font-variant-numeric:normal;font-feature-settings:normal;text-align:start;letter-spacing:0px;word-spacing:0px;writing-mode:lr-tb;text-anchor:start;fill:#000000;fill-opacity:1;stroke:none;stroke-width:0.26458332"
       d="m -1029.3955,-171.70582 q 0.04,-0.26919 0.1507,-0.46919 0.1135,-0.2 0.279,-0.3334 0.1679,-0.1333 0.3828,-0.19751 0.2148,-0.067 0.4618,-0.067 0.2667,0 0.4741,0.077 0.2074,0.074 0.3506,0.20251 0.1433,0.12841 0.2174,0.2988 0.074,0.16798 0.074,0.3556 0,0.17039 -0.034,0.3013 -0.035,0.12838 -0.1037,0.22469 -0.067,0.094 -0.168,0.1605 -0.099,0.064 -0.2272,0.10871 0.5976,0.2099 0.5976,0.81489 0,0.28649 -0.1037,0.4988 -0.1037,0.2124 -0.279,0.35321 -0.1729,0.14068 -0.4025,0.21231 -0.2297,0.069 -0.4791,0.069 -0.2568,0 -0.4569,-0.054 -0.2,-0.057 -0.3556,-0.17288 -0.1555,-0.11853 -0.2741,-0.30134 -0.116,-0.18269 -0.2025,-0.4346 l 0.3408,-0.1383 q 0.1334,-0.052 0.247,-0.027 0.1136,0.0249 0.163,0.11359 0.1111,0.205 0.2345,0.29879 0.126,0.091 0.2939,0.091 0.1284,0 0.2223,-0.042 0.096,-0.044 0.158,-0.1111 0.064,-0.069 0.096,-0.1556 0.032,-0.086 0.032,-0.17529 0,-0.1161 -0.017,-0.20741 -0.015,-0.094 -0.089,-0.16049 -0.074,-0.067 -0.2247,-0.10131 -0.1482,-0.037 -0.4149,-0.037 v -0.52851 q 0.2248,0 0.3631,-0.035 0.1382,-0.034 0.2123,-0.094 0.077,-0.062 0.1013,-0.14819 0.025,-0.086 0.025,-0.1901 0,-0.21239 -0.1037,-0.326 -0.1013,-0.11599 -0.3112,-0.11599 -0.1704,0 -0.2889,0.091 -0.1161,0.089 -0.1605,0.2223 -0.052,0.13581 -0.1359,0.18021 -0.084,0.044 -0.2395,0.0201 z"
       inkscape:export-xdpi="96"
       inkscape:export-ydpi="96" />
    <path
       inkscape:connector-curvature="0"
       id="path2762"
       style="font-style:normal;font-variant:normal;font-weight:900;font-stretch:normal;font-size:4.93888903px;line-height:1.25;font-family:Lato;-inkscape-font-specification:'Lato, Heavy';font-variant-ligatures:normal;font-variant-caps:normal;font-variant-numeric:normal;font-feature-settings:normal;text-align:start;letter-spacing:0px;word-spacing:0px;writing-mode:lr-tb;text-anchor:start;fill:#000000;fill-opacity:1;stroke:none;stroke-width:0.26458332"
       d="m -1027.7653,-38.281607 v -0.93839 q 0,-0.086 0.01,-0.18521 0.01,-0.10131 0.02,-0.2099 l -0.9507,1.3335 z m 1.0372,0 v 0.42969 q 0,0.057 -0.039,0.099 -0.037,0.042 -0.1087,0.042 h -0.2222 v 0.8273 h -0.6668 v -0.8273 h -1.4471 q -0.072,0 -0.1309,-0.044 -0.057,-0.044 -0.072,-0.11117 l -0.079,-0.3778 1.6644,-2.23732 h 0.731 v 2.2003 z"
       inkscape:export-xdpi="96"
       inkscape:export-ydpi="96" />
    <path
       inkscape:connector-curvature="0"
       id="path2764"
       style="font-style:normal;font-variant:normal;font-weight:900;font-stretch:normal;font-size:4.93888903px;line-height:1.25;font-family:Lato;-inkscape-font-specification:'Lato, Heavy';font-variant-ligatures:normal;font-variant-caps:normal;font-variant-numeric:normal;font-feature-settings:normal;text-align:start;letter-spacing:0px;word-spacing:0px;writing-mode:lr-tb;text-anchor:start;fill:#000000;fill-opacity:1;stroke:none;stroke-width:0.26458332"
       d="m -1028.5535,93.078683 q 0.1013,-0.0201 0.1951,-0.027 0.094,-0.0101 0.1827,-0.0101 0.284,0 0.5013,0.087 0.2174,0.086 0.3655,0.23701 0.1482,0.1482 0.2223,0.35068 0.077,0.20003 0.077,0.42971 0,0.2889 -0.1037,0.5284 -0.1012,0.23709 -0.284,0.41 -0.1827,0.1728 -0.4371,0.26911 -0.2519,0.094 -0.5531,0.094 -0.1754,0 -0.3359,-0.037 -0.158,-0.037 -0.2988,-0.099 -0.1383,-0.064 -0.2568,-0.14571 -0.1185,-0.0839 -0.2148,-0.17775 l 0.237,-0.31609 q 0.037,-0.049 0.086,-0.074 0.049,-0.027 0.1061,-0.027 0.074,0 0.1383,0.042 0.067,0.039 0.1433,0.089 0.079,0.047 0.1827,0.086 0.1037,0.04 0.2568,0.04 0.1531,0 0.2618,-0.049 0.1086,-0.052 0.1753,-0.13829 0.069,-0.089 0.099,-0.205 0.032,-0.11851 0.032,-0.25191 0,-0.2617 -0.1482,-0.39759 -0.1481,-0.13822 -0.4198,-0.13822 -0.242,0 -0.4741,0.091 l -0.4741,-0.12834 0.3062,-1.80019 h 1.8422 v 0.31609 q 0,0.079 -0.025,0.1432 -0.025,0.064 -0.079,0.11361 -0.052,0.047 -0.1383,0.074 -0.086,0.0249 -0.2075,0.0249 h -0.8593 z"
       inkscape:export-xdpi="96"
       inkscape:export-ydpi="96" />
    <path
       inkscape:connector-curvature="0"
       id="path2766"
       style="font-style:normal;font-variant:normal;font-weight:900;font-stretch:normal;font-size:4.93888903px;line-height:1.25;font-family:Lato;-inkscape-font-specification:'Lato, Heavy';font-variant-ligatures:normal;font-variant-caps:normal;font-variant-numeric:normal;font-feature-settings:normal;text-align:start;letter-spacing:0px;word-spacing:0px;writing-mode:lr-tb;text-anchor:start;fill:#000000;fill-opacity:1;stroke:none;stroke-width:0.26458332"
       d="m -1028.219,227.13459 q 0.1185,0 0.2198,-0.044 0.1037,-0.044 0.1778,-0.12099 0.074,-0.079 0.116,-0.18269 0.044,-0.10621 0.044,-0.22972 0,-0.13829 -0.042,-0.24688 -0.04,-0.10872 -0.1136,-0.1828 -0.074,-0.074 -0.1803,-0.11361 -0.1037,-0.039 -0.2321,-0.039 -0.1161,0 -0.2124,0.042 -0.096,0.04 -0.1679,0.1161 -0.069,0.077 -0.1087,0.18272 -0.039,0.10618 -0.039,0.23958 0,0.1333 0.032,0.2395 0.032,0.1062 0.099,0.18272 0.067,0.077 0.1679,0.11859 0.1013,0.039 0.2396,0.039 z m -0.1235,-1.6496 q 0.1729,-0.064 0.3852,-0.064 0.1951,0 0.3853,0.064 0.1901,0.064 0.3407,0.19751 0.1507,0.1334 0.2421,0.3384 0.094,0.20238 0.094,0.479 0,0.25189 -0.094,0.47908 -0.094,0.22471 -0.2667,0.39511 -0.1704,0.1679 -0.4124,0.2667 -0.242,0.099 -0.5359,0.099 -0.3013,0 -0.5408,-0.094 -0.2396,-0.096 -0.4075,-0.2667 -0.1654,-0.17029 -0.2543,-0.40741 -0.087,-0.23709 -0.087,-0.5211 0,-0.53088 0.41,-1.0791 l 0.8099,-1.094 q 0.057,-0.072 0.163,-0.1234 0.1087,-0.052 0.247,-0.052 h 0.6815 l -1.0668,1.27421 z"
       inkscape:export-xdpi="96"
       inkscape:export-ydpi="96" />
    <path
       inkscape:connector-curvature="0"
       id="path2768"
       style="font-style:normal;font-variant:normal;font-weight:900;font-stretch:normal;font-size:4.93888903px;line-height:1.25;font-family:Lato;-inkscape-font-specification:'Lato, Heavy';font-variant-ligatures:normal;font-variant-caps:normal;font-variant-numeric:normal;font-feature-settings:normal;text-align:start;letter-spacing:0px;word-spacing:0px;writing-mode:lr-tb;text-anchor:start;fill:#000000;fill-opacity:1;stroke:none;stroke-width:0.26458332"
       d="m -1026.9648,356.3937 v 0.321 q 0,0.14319 -0.032,0.23209 -0.032,0.086 -0.062,0.14571 l -1.2495,2.64728 q -0.052,0.10372 -0.1482,0.1778 -0.094,0.074 -0.2519,0.074 h -0.5581 l 1.2842,-2.57569 q 0.057,-0.10369 0.1136,-0.18762 0.059,-0.086 0.1308,-0.16298 h -1.5829 q -0.035,0 -0.067,-0.0119 -0.03,-0.0151 -0.054,-0.037 -0.022,-0.0251 -0.037,-0.054 -0.015,-0.0321 -0.015,-0.0641 v -0.50379 z"
       inkscape:export-xdpi="96"
       inkscape:export-ydpi="96" />
    <path
       inkscape:connector-curvature="0"
       id="path2770"
       style="font-style:normal;font-variant:normal;font-weight:900;font-stretch:normal;font-size:4.93888903px;line-height:1.25;font-family:Lato;-inkscape-font-specification:'Lato, Heavy';font-variant-ligatures:normal;font-variant-caps:normal;font-variant-numeric:normal;font-feature-settings:normal;text-align:start;letter-spacing:0px;word-spacing:0px;writing-mode:lr-tb;text-anchor:start;fill:#000000;fill-opacity:1;stroke:none;stroke-width:0.26458332"
       d="m -1028.2103,491.78499 q 0.1284,0 0.2222,-0.039 0.094,-0.039 0.1531,-0.1062 0.062,-0.069 0.089,-0.1605 0.03,-0.094 0.03,-0.2 0,-0.1161 -0.025,-0.2124 -0.025,-0.096 -0.082,-0.16299 -0.057,-0.069 -0.1531,-0.10609 -0.094,-0.04 -0.2346,-0.04 -0.1408,0 -0.2371,0.04 -0.094,0.037 -0.1506,0.10609 -0.057,0.067 -0.082,0.16299 -0.025,0.096 -0.025,0.2124 0,0.10621 0.027,0.2 0.03,0.091 0.089,0.1605 0.062,0.067 0.1531,0.1062 0.094,0.039 0.2247,0.039 z m 0,-2.541 q -0.1161,0 -0.1951,0.037 -0.079,0.037 -0.1309,0.099 -0.049,0.059 -0.072,0.13833 -0.022,0.079 -0.022,0.16298 0,0.094 0.017,0.18269 0.017,0.089 0.064,0.15812 0.047,0.069 0.1284,0.1111 0.082,0.042 0.2099,0.042 0.1284,0 0.2099,-0.042 0.082,-0.042 0.1284,-0.1111 0.047,-0.069 0.064,-0.15812 0.017,-0.089 0.017,-0.18269 0,-0.084 -0.022,-0.16298 -0.022,-0.079 -0.074,-0.13833 -0.049,-0.062 -0.1309,-0.099 -0.079,-0.037 -0.1926,-0.037 z m 0.6791,1.20261 q 0.1605,0.057 0.2741,0.14078 0.1161,0.084 0.1877,0.19262 0.074,0.10858 0.1086,0.2395 0.035,0.1284 0.035,0.27408 0,0.24202 -0.094,0.43961 -0.091,0.19751 -0.2618,0.33829 -0.1679,0.13833 -0.405,0.21482 -0.2371,0.077 -0.5235,0.077 -0.2865,0 -0.5235,-0.077 -0.2371,-0.077 -0.4075,-0.21482 -0.1679,-0.14078 -0.2617,-0.33829 -0.091,-0.19759 -0.091,-0.43961 0,-0.14568 0.035,-0.27408 0.034,-0.13092 0.1061,-0.2395 0.074,-0.10872 0.1877,-0.19262 0.1161,-0.084 0.2766,-0.14078 -0.2445,-0.1111 -0.3655,-0.30621 -0.121,-0.19759 -0.121,-0.4741 0,-0.21 0.086,-0.3878 0.086,-0.18018 0.2421,-0.3111 0.1555,-0.13089 0.3679,-0.205 0.2148,-0.077 0.4692,-0.077 0.2543,0 0.4667,0.077 0.2149,0.074 0.3704,0.205 0.1556,0.13092 0.242,0.3111 0.086,0.1778 0.086,0.3878 0,0.27651 -0.121,0.4741 -0.121,0.19511 -0.3655,0.30621 z"
       inkscape:export-xdpi="96"
       inkscape:export-ydpi="96" />
  </g>
</svg>
